<svg
   width="99"
   height="99"
   viewBox="0 0 99 99"
   version="1.1"
   xml:space="preserve"
   xmlns="http://www.w3.org/2000/svg"
   xmlns:svg="http://www.w3.org/2000/svg"><g><path
       d="m 79.558594,49.113281 q 0,5.695313 -1.335938,10.160156 -1.335937,4.464844 -4.042969,7.523438 -2.671875,3.058594 -6.679687,4.675781 -3.972656,1.582031 -9.28125,1.582031 -4.851563,0 -8.542969,-1.300781 -3.691406,-1.300781 -6.257812,-3.867187 -2.53125,-2.601563 -3.9375,-6.433594 -1.371094,-3.867188 -1.652344,-8.929688 h -6.996094 v 18.527344 q 0,0.351563 -0.246094,0.632813 -0.210937,0.246093 -0.738281,0.421875 -0.527344,0.175781 -1.40625,0.246093 -0.878906,0.105469 -2.25,0.105469 -1.335937,0 -2.25,-0.105469 -0.878906,-0.07031 -1.40625,-0.246093 -0.527344,-0.175782 -0.773437,-0.421875 -0.210938,-0.28125 -0.210938,-0.632813 V 27.949219 q 0,-0.351563 0.210938,-0.597657 0.246093,-0.28125 0.773437,-0.457031 0.5625,-0.175781 1.441406,-0.246094 0.878907,-0.105468 2.214844,-0.105468 1.371094,0 2.25,0.105468 0.878906,0.07031 1.40625,0.246094 0.527344,0.175781 0.738281,0.457031 0.246094,0.246094 0.246094,0.597657 V 45 h 7.171875 q 0.492188,-4.394531 2.003906,-7.910156 1.546875,-3.550782 4.113282,-6.011719 2.601562,-2.460938 6.257812,-3.796875 3.65625,-1.335938 8.402344,-1.335938 4.957031,0 8.824219,1.40625 3.867187,1.40625 6.503906,4.289063 2.671875,2.847656 4.042969,7.207031 1.40625,4.359375 1.40625,10.265625 z m -9.703125,0.492188 q 0,-3.550782 -0.597657,-6.503907 -0.5625,-2.953125 -1.898437,-5.0625 -1.300781,-2.144531 -3.480469,-3.304687 -2.179687,-1.195313 -5.414062,-1.195313 -3.375,0 -5.554688,1.300782 -2.179687,1.265625 -3.480469,3.410156 -1.265625,2.144531 -1.792968,4.992187 -0.492188,2.8125 -0.492188,5.976563 0,2.320312 0.210938,4.429687 0.210937,2.074219 0.738281,3.867188 0.527344,1.792969 1.371094,3.269531 0.84375,1.476563 2.109375,2.496094 1.265625,1.019531 2.988281,1.582031 1.722656,0.5625 3.972656,0.5625 3.269531,0 5.414063,-1.230469 2.179687,-1.230468 3.480468,-3.375 1.300782,-2.144531 1.863282,-5.027343 0.5625,-2.882813 0.5625,-6.1875 z"
       style="fill:#ffffff;" 
/></g></svg>
