<?xml version="1.0" encoding="UTF-8" standalone="no"?>
<!-- Created with Inkscape (http://www.inkscape.org/) -->

<svg
   width="640"
   height="360"
   viewBox="0 0 640 360"
   version="1.1"
   id="svg1"
   xml:space="preserve"
   xmlns="http://www.w3.org/2000/svg"
   xmlns:svg="http://www.w3.org/2000/svg"><defs
     id="defs1" /><g
     id="layer7"
     style="display:inline"><g
       id="g29"
       style="display:inline"><g
         id="g28"
         style="display:inline"><path
           id="rect29"
           style="fill-opacity:0.501961"
           d="m 121,244 h 398 c 6.094,0 11,4.906 11,11 v 68 c 0,6.094 -4.906,11 -11,11 H 121 c -6.094,0 -11,-4.906 -11,-11 v -68 c 0,-6.094 4.906,-11 11,-11 z" /></g><path
         id="rect25"
         style="display:inline;fill:#b8c9c0;stroke-width:4.64758;stroke-linecap:round;stroke-linejoin:round"
         d="m 66,10 h 508 c 8.864,0 16,7.136 16,16 0,8.864 -7.136,16 -16,16 H 66 C 57.136,42 50,34.864 50,26 50,17.136 57.136,10 66,10 Z" /></g></g></svg>
