<svg
   width="99"
   height="99"
   viewBox="0 0 99 99"
   version="1.1"
   xml:space="preserve"
   xmlns="http://www.w3.org/2000/svg"
   xmlns:svg="http://www.w3.org/2000/svg"><g><path
       d="m 85.589844,21.390625 q 0,0.597656 -0.128907,0.914062 -0.117187,0.304688 -0.328125,0.304688 h -1.347656 v 2.742187 q 0,0.117188 -0.07031,0.210938 -0.07031,0.08203 -0.246094,0.140625 -0.175781,0.05859 -0.457031,0.08203 -0.28125,0.03516 -0.726563,0.03516 -0.421875,0 -0.714844,-0.03516 -0.28125,-0.02344 -0.457031,-0.08203 -0.164062,-0.05859 -0.234375,-0.140625 -0.05859,-0.09375 -0.05859,-0.210938 v -2.742187 h -5.800781 q -0.164062,0 -0.292969,-0.03516 -0.128906,-0.04687 -0.222656,-0.1875 -0.08203,-0.152344 -0.128906,-0.421875 -0.03516,-0.28125 -0.03516,-0.738282 0,-0.375 0.01172,-0.644531 0.02344,-0.28125 0.05859,-0.503906 0.04687,-0.222656 0.117188,-0.421875 0.08203,-0.199219 0.199218,-0.421875 l 4.710938,-8.30859 q 0.05859,-0.105468 0.199219,-0.175781 0.140625,-0.08203 0.386718,-0.128906 0.257813,-0.05859 0.644532,-0.08203 0.386718,-0.02344 0.9375,-0.02344 0.597656,0 1.019531,0.03516 0.421875,0.02344 0.667969,0.09375 0.257812,0.05859 0.375,0.152344 0.117187,0.09375 0.117187,0.222656 v 9.128906 h 1.347656 q 0.1875,0 0.316407,0.292969 0.140625,0.28125 0.140625,0.949219 z m -4.769532,-8.214844 h -0.02344 l -3.996094,6.972656 h 4.019531 z"
       style="fill:#ffffff;" 
/></g></svg>
